# xmcd
#
# Track frame offsets: 
#        150
#        58609
#        133112
#        155846
#        190625
#        215652
#
# Disc length: 3371 seconds
#
# Revision: 2
# Processed by: cddbd v1.5.2PL0 Copyright (c) Steve Scherf et al.
# Submitted via: ExactAudioCopy v1.0b1
#
DISCID=570d2906
DTITLE=The Allman Brothers Band - 03-24-09 Beacon Theatre (Disc3)
DYEAR=2009
DGENRE=Blues
TTITLE0=The Same Thing
TTITLE1=Mountain Jam
TTITLE2=Smokestack Lightning
TTITLE3=Mountain Jam - reprise
TTITLE4=Crowd noise
TTITLE5=One Way Out
EXTD=YEAR: 2009
EXTT0=
EXTT1=
EXTT2=
EXTT3=
EXTT4=
EXTT5=
PLAYORDER=
